<?xml version="1.0" standalone="no"?>
<!DOCTYPE svg PUBLIC "-//W3C//DTD SVG 20010904//EN"
 "http://www.w3.org/TR/2001/REC-SVG-20010904/DTD/svg10.dtd">
<svg version="1.0" xmlns="http://www.w3.org/2000/svg"
 width="180.000000pt" height="180.000000pt" viewBox="0 0 180.000000 180.000000"
 preserveAspectRatio="xMidYMid meet">
<metadata>
Created by potrace 1.14, written by Peter Selinger 2001-2017
</metadata>
<g transform="translate(0.000000,180.000000) scale(0.100000,-0.100000)"
fill="#000000" stroke="none">
<path d="M890 1780 c-35 -10 -84 -36 -98 -52 -8 -11 -8 -26 3 -62 18 -58 14
-67 -23 -57 -37 11 -64 5 -79 -16 -7 -10 -17 -23 -23 -30 -5 -7 -10 -19 -10
-28 0 -8 -4 -15 -10 -15 -12 0 -8 -27 8 -57 15 -27 15 -33 1 -33 -12 0 -90
-79 -125 -126 l-22 -29 5 40 c2 22 9 56 14 75 12 48 12 50 -11 50 -11 0 -20
-4 -20 -9 0 -5 -8 -12 -18 -15 -27 -9 -123 -104 -161 -159 -34 -50 -89 -161
-95 -193 -3 -11 -9 -31 -15 -46 -22 -57 -31 -215 -17 -303 18 -109 74 -234
106 -235 3 0 6 20 7 44 0 24 9 70 18 102 l17 58 19 -31 c16 -25 17 -35 8 -62
-11 -30 -9 -35 14 -57 14 -13 30 -24 34 -24 15 0 92 -95 117 -145 14 -27 28
-68 31 -90 8 -51 71 -118 89 -93 7 9 18 12 30 8 15 -5 16 -9 7 -14 -9 -6 -1
-15 27 -31 22 -12 57 -42 78 -65 32 -35 90 -75 117 -79 18 -3 78 37 140 95 37
35 73 63 80 61 6 -1 11 6 9 16 -3 20 34 25 41 5 3 -9 17 -1 40 20 24 24 36 45
40 73 11 83 73 176 165 248 31 24 41 38 37 51 -13 40 -12 56 5 83 19 31 26 27
35 -19 13 -68 20 -113 24 -146 1 -4 8 -5 16 -2 25 10 76 138 91 229 10 60 11
187 3 215 -5 14 -10 39 -13 55 -10 72 -63 192 -119 275 -58 84 -193 197 -212
178 -4 -3 -2 -23 4 -44 5 -22 12 -57 15 -79 l5 -40 -22 30 c-12 16 -47 54 -79
85 -47 46 -55 59 -46 74 15 27 2 77 -32 118 -28 33 -32 35 -75 31 -51 -6 -56
2 -31 62 13 31 13 37 -2 55 -23 28 -111 59 -142 50z m-80 -454 c-4 -17 -6 -39
-4 -49 2 -14 -6 -17 -51 -17 -58 0 -78 -15 -105 -79 -11 -28 -44 -50 -56 -38
-8 7 30 77 62 115 15 18 55 53 88 78 64 48 79 46 66 -10z m254 27 c94 -63 192
-191 167 -216 -8 -8 -11 -8 -11 1 0 7 -6 12 -13 12 -8 0 -22 18 -32 40 -26 58
-45 71 -104 72 -45 0 -51 2 -51 21 0 12 -3 39 -6 60 -4 20 -3 37 2 37 4 0 26
-12 48 -27z m-444 -549 c6 -15 13 -43 16 -63 3 -20 7 -45 9 -56 13 -71 26
-186 23 -197 -7 -19 -73 87 -127 202 -4 8 -8 36 -10 61 -3 54 11 69 72 78 4 0
12 -11 17 -25z m676 -13 c9 -17 9 -34 -1 -71 -12 -46 -64 -158 -85 -183 -6 -7
-19 -23 -30 -37 l-21 -25 6 55 c13 140 40 281 56 291 19 11 63 -6 75 -30z"/>
</g>
</svg>
